# xmcd
#
# Track frame offsets: 
#        150
#        10317
#        22966
#        32432
#        39790
#        52435
#        62195
#        70744
#        79956
#        91459
#        100868
#        111063
#        119544
#        131134
#        143530
#        153491
#        163461
#        173488
#        182887
#        195529
#        205783
#        216841
#        227536
#        238528
#        250078
#        258942
#        269940
#        280136
#        292784
#
# Disc length: 4077 seconds
#
# Revision: 0
# Processed by: cddbd v1.5.2PL0 Copyright (c) Steve Scherf et al.
# Submitted via: ExactAudioCopy v1.0b3
#
DISCID=a10feb1d
DTITLE=George Jones - Ragged But Right CD3
DYEAR=2011
DGENRE=Country
TTITLE0=Ragged But Right (alt. take)
TTITLE1=George Jones with Jeanette Hicks - Yearning (with Jeanette Hic
TTITLE1=ks, alt take)
TTITLE2=Hold Everything (alt. take)
TTITLE3=Any Old Time
TTITLE4=George Jones with Jeanette Hicks - I'll Take The Chance (with 
TTITLE4=Jeanette Hicks)
TTITLE5=Sweet Dream
TTITLE6=Heartbreake Hotel (as Thumper Jones)
TTITLE7=Singing The Blues
TTITLE8=One Is A Lonely Number
TTITLE9=Maybe Little Boy
TTITLE10=Run Boy
TTITLE11=I'm A One-Woman Man
TTITLE12=Settle Down
TTITLE13=George Jones with Sonny Burns - Heartbroken Me (with Sonny Bu
TTITLE13=rns, alt. take)
TTITLE14=Rain, Rain
TTITLE15=Frozen Heart
TTITLE16=I've Got Five Dollars (And It's Saturday Night)
TTITLE17='Cause I Love You
TTITLE18=You Never Thought
TTITLE19=Don't Do This To Me
TTITLE20=Gotta Talk To Your Heart
TTITLE21=Good Old Bible
TTITLE22=Will The Circle Be Unbroken
TTITLE23=We'll Understand It
TTITLE24=That's The Way I Feel
TTITLE25=George Jones with Virginia Spurlock - Give-Away Girl (with Vi
TTITLE25=rginia Spurlock)
TTITLE26=No Use To Cry
TTITLE27=George Jones with Hank Locklin - You're Back Again (with Hank
TTITLE27=Locklin)
TTITLE28=Life To Go
EXTD=
EXTT0=
EXTT1=
EXTT2=
EXTT3=
EXTT4=
EXTT5=
EXTT6=
EXTT7=
EXTT8=
EXTT9=
EXTT10=
EXTT11=
EXTT12=
EXTT13=
EXTT14=
EXTT15=
EXTT16=
EXTT17=
EXTT18=
EXTT19=
EXTT20=
EXTT21=
EXTT22=
EXTT23=
EXTT24=
EXTT25=
EXTT26=
EXTT27=
EXTT28=
PLAYORDER=
